# xmcd
#
# Track frame offsets: 
#        150
#        18525
#        41755
#        54787
#        78002
#        96550
#        120707
#        136377
#        156282
#        167627
#        196770
#
# Disc length: 2873 seconds
#
# Revision: 2
# Processed by: cddbd v1.5.1PL2 Copyright (c) Steve Scherf et al.
# Submitted via: ExactAudioCopy v0.95b3
#
DISCID=880b370b
DTITLE=James Montgomery Blues Band - Bring It On Home
DYEAR=2001
DGENRE=Blues
TTITLE0=Sweet Sixteen
TTITLE1=The Sleeper
TTITLE2=Dimples
TTITLE3=Back On My Knees Again
TTITLE4=Lovin' Cup
TTITLE5=Bring It On Home
TTITLE6=Mona
TTITLE7=Ramblin' Man
TTITLE8=Juniors' Jump
TTITLE9=Wedding Ring
TTITLE10=Sinkin' Blues
EXTD=YEAR: 2001 ID3G: 0
EXTT0=
EXTT1=
EXTT2=
EXTT3=
EXTT4=
EXTT5=
EXTT6=
EXTT7=
EXTT8=
EXTT9=
EXTT10=
PLAYORDER=
